<?xml version="1.0" encoding="UTF-8" standalone="no"?>
<!DOCTYPE svg PUBLIC "-//W3C//DTD SVG 1.1//EN"
 "http://www.w3.org/Graphics/SVG/1.1/DTD/svg11.dtd">
<!-- Generated by graphviz version 12.1.0 (20240811.2233)
 -->
<!-- Title: Tree Pages: 1 -->
<svg width="1174pt" height="415pt"
 viewBox="0.00 0.00 1174.00 415.38" xmlns="http://www.w3.org/2000/svg" xmlns:xlink="http://www.w3.org/1999/xlink">
<g id="graph0" class="graph" transform="scale(1 1) rotate(0) translate(4 411.38)">
<title>Tree</title>
<polygon fill="white" stroke="none" points="-4,4 -4,-411.38 1170,-411.38 1170,4 -4,4"/>
<!-- 0 -->
<g id="node1" class="node">
<title>0</title>
<path fill="#fefaf7" stroke="black" d="M908.38,-407.38C908.38,-407.38 477.62,-407.38 477.62,-407.38 471.62,-407.38 465.62,-401.38 465.62,-395.38 465.62,-395.38 465.62,-342.38 465.62,-342.38 465.62,-336.38 471.62,-330.38 477.62,-330.38 477.62,-330.38 908.38,-330.38 908.38,-330.38 914.38,-330.38 920.38,-336.38 920.38,-342.38 920.38,-342.38 920.38,-395.38 920.38,-395.38 920.38,-401.38 914.38,-407.38 908.38,-407.38"/>
<text text-anchor="start" x="473.62" y="-390.07" font-family="Helvetica,sans-Serif" font-size="14.00">coregistration/cost_function/normalised_cross_correlation ≤ 0.5</text>
<text text-anchor="start" x="649.5" y="-372.82" font-family="Helvetica,sans-Serif" font-size="14.00">gini = 0.693</text>
<text text-anchor="start" x="626.62" y="-355.57" font-family="Helvetica,sans-Serif" font-size="14.00">samples = 100.0%</text>
<text text-anchor="start" x="564" y="-338.32" font-family="Helvetica,sans-Serif" font-size="14.00">value = [0.383, 0.356, 0.137, 0.124]</text>
</g>
<!-- 1 -->
<g id="node2" class="node">
<title>1</title>
<path fill="#fdf6f1" stroke="black" d="M682.88,-294.38C682.88,-294.38 315.12,-294.38 315.12,-294.38 309.12,-294.38 303.12,-288.38 303.12,-282.38 303.12,-282.38 303.12,-229.38 303.12,-229.38 303.12,-223.38 309.12,-217.38 315.12,-217.38 315.12,-217.38 682.88,-217.38 682.88,-217.38 688.88,-217.38 694.88,-223.38 694.88,-229.38 694.88,-229.38 694.88,-282.38 694.88,-282.38 694.88,-288.38 688.88,-294.38 682.88,-294.38"/>
<text text-anchor="start" x="311.12" y="-277.07" font-family="Helvetica,sans-Serif" font-size="14.00">signal_modeling/hrf/temporal_dispersion_derivs ≤ 0.5</text>
<text text-anchor="start" x="455.5" y="-259.82" font-family="Helvetica,sans-Serif" font-size="14.00">gini = 0.499</text>
<text text-anchor="start" x="437.12" y="-242.57" font-family="Helvetica,sans-Serif" font-size="14.00">samples = 73.9%</text>
<text text-anchor="start" x="388" y="-225.32" font-family="Helvetica,sans-Serif" font-size="14.00">value = [0.518, 0.482, 0.0, 0.0]</text>
</g>
<!-- 0&#45;&gt;1 -->
<g id="edge1" class="edge">
<title>0&#45;&gt;1</title>
<path fill="none" stroke="black" d="M626.78,-329.99C610.17,-320.48 592.22,-310.21 575.17,-300.46"/>
<polygon fill="black" stroke="black" points="576.98,-297.46 566.57,-295.53 573.51,-303.54 576.98,-297.46"/>
<text text-anchor="middle" x="571.82" y="-314.23" font-family="Helvetica,sans-Serif" font-size="14.00">True</text>
</g>
<!-- 6 -->
<g id="node7" class="node">
<title>6</title>
<path fill="#ecf6fd" stroke="black" d="M1050.88,-294.38C1050.88,-294.38 725.12,-294.38 725.12,-294.38 719.12,-294.38 713.12,-288.38 713.12,-282.38 713.12,-282.38 713.12,-229.38 713.12,-229.38 713.12,-223.38 719.12,-217.38 725.12,-217.38 725.12,-217.38 1050.88,-217.38 1050.88,-217.38 1056.88,-217.38 1062.88,-223.38 1062.88,-229.38 1062.88,-229.38 1062.88,-282.38 1062.88,-282.38 1062.88,-288.38 1056.88,-294.38 1050.88,-294.38"/>
<text text-anchor="start" x="721.12" y="-277.07" font-family="Helvetica,sans-Serif" font-size="14.00">coregistration/source_target/func_on_anat ≤ 0.5</text>
<text text-anchor="start" x="844.5" y="-259.82" font-family="Helvetica,sans-Serif" font-size="14.00">gini = 0.499</text>
<text text-anchor="start" x="826.12" y="-242.57" font-family="Helvetica,sans-Serif" font-size="14.00">samples = 26.1%</text>
<text text-anchor="start" x="777" y="-225.32" font-family="Helvetica,sans-Serif" font-size="14.00">value = [0.0, 0.0, 0.525, 0.475]</text>
</g>
<!-- 0&#45;&gt;6 -->
<g id="edge6" class="edge">
<title>0&#45;&gt;6</title>
<path fill="none" stroke="black" d="M759.56,-329.99C776.26,-320.48 794.3,-310.21 811.44,-300.46"/>
<polygon fill="black" stroke="black" points="813.13,-303.52 820.09,-295.53 809.67,-297.44 813.13,-303.52"/>
<text text-anchor="middle" x="814.79" y="-314.22" font-family="Helvetica,sans-Serif" font-size="14.00">False</text>
</g>
<!-- 2 -->
<g id="node3" class="node">
<title>2</title>
<path fill="#eeae7f" stroke="black" d="M498.88,-181.38C498.88,-181.38 143.12,-181.38 143.12,-181.38 137.12,-181.38 131.12,-175.38 131.12,-169.38 131.12,-169.38 131.12,-116.38 131.12,-116.38 131.12,-110.38 137.12,-104.38 143.12,-104.38 143.12,-104.38 498.88,-104.38 498.88,-104.38 504.88,-104.38 510.88,-110.38 510.88,-116.38 510.88,-116.38 510.88,-169.38 510.88,-169.38 510.88,-175.38 504.88,-181.38 498.88,-181.38"/>
<text text-anchor="start" x="139.12" y="-164.07" font-family="Helvetica,sans-Serif" font-size="14.00">signal_modeling/nuisance_regressors/motion ≤ 21.0</text>
<text text-anchor="start" x="277.5" y="-146.82" font-family="Helvetica,sans-Serif" font-size="14.00">gini = 0.386</text>
<text text-anchor="start" x="259.12" y="-129.57" font-family="Helvetica,sans-Serif" font-size="14.00">samples = 51.9%</text>
<text text-anchor="start" x="210" y="-112.33" font-family="Helvetica,sans-Serif" font-size="14.00">value = [0.738, 0.262, 0.0, 0.0]</text>
</g>
<!-- 1&#45;&gt;2 -->
<g id="edge2" class="edge">
<title>1&#45;&gt;2</title>
<path fill="none" stroke="black" d="M438.24,-216.99C423.14,-207.57 406.84,-197.4 391.33,-187.73"/>
<polygon fill="black" stroke="black" points="393.41,-184.9 383.07,-182.58 389.71,-190.84 393.41,-184.9"/>
</g>
<!-- 5 -->
<g id="node6" class="node">
<title>5</title>
<path fill="#47e539" stroke="black" d="M630,-59.75C630,-59.75 452,-59.75 452,-59.75 446,-59.75 440,-53.75 440,-47.75 440,-47.75 440,-12 440,-12 440,-6 446,0 452,0 452,0 630,0 630,0 636,0 642,-6 642,-12 642,-12 642,-47.75 642,-47.75 642,-53.75 636,-59.75 630,-59.75"/>
<text text-anchor="start" x="506.5" y="-42.45" font-family="Helvetica,sans-Serif" font-size="14.00">gini = 0.0</text>
<text text-anchor="start" x="479.12" y="-25.2" font-family="Helvetica,sans-Serif" font-size="14.00">samples = 22.0%</text>
<text text-anchor="start" x="448" y="-7.95" font-family="Helvetica,sans-Serif" font-size="14.00">value = [0.0, 1.0, 0.0, 0.0]</text>
</g>
<!-- 1&#45;&gt;5 -->
<g id="edge5" class="edge">
<title>1&#45;&gt;5</title>
<path fill="none" stroke="black" d="M509.75,-217.26C514.91,-199.18 520,-181.38 520,-181.38 520,-181.38 529.14,-115.86 535.36,-71.28"/>
<polygon fill="black" stroke="black" points="538.83,-71.78 536.74,-61.39 531.89,-70.81 538.83,-71.78"/>
</g>
<!-- 3 -->
<g id="node4" class="node">
<title>3</title>
<path fill="#e58139" stroke="black" d="M190,-59.75C190,-59.75 12,-59.75 12,-59.75 6,-59.75 0,-53.75 0,-47.75 0,-47.75 0,-12 0,-12 0,-6 6,0 12,0 12,0 190,0 190,0 196,0 202,-6 202,-12 202,-12 202,-47.75 202,-47.75 202,-53.75 196,-59.75 190,-59.75"/>
<text text-anchor="start" x="66.5" y="-42.45" font-family="Helvetica,sans-Serif" font-size="14.00">gini = 0.0</text>
<text text-anchor="start" x="39.12" y="-25.2" font-family="Helvetica,sans-Serif" font-size="14.00">samples = 38.3%</text>
<text text-anchor="start" x="8" y="-7.95" font-family="Helvetica,sans-Serif" font-size="14.00">value = [1.0, 0.0, 0.0, 0.0]</text>
</g>
<!-- 2&#45;&gt;3 -->
<g id="edge3" class="edge">
<title>2&#45;&gt;3</title>
<path fill="none" stroke="black" d="M245.9,-103.99C221.07,-91.46 193.59,-77.59 169.29,-65.33"/>
<polygon fill="black" stroke="black" points="170.95,-62.25 160.45,-60.87 167.8,-68.5 170.95,-62.25"/>
</g>
<!-- 4 -->
<g id="node5" class="node">
<title>4</title>
<path fill="#47e539" stroke="black" d="M410,-59.75C410,-59.75 232,-59.75 232,-59.75 226,-59.75 220,-53.75 220,-47.75 220,-47.75 220,-12 220,-12 220,-6 226,0 232,0 232,0 410,0 410,0 416,0 422,-6 422,-12 422,-12 422,-47.75 422,-47.75 422,-53.75 416,-59.75 410,-59.75"/>
<text text-anchor="start" x="286.5" y="-42.45" font-family="Helvetica,sans-Serif" font-size="14.00">gini = 0.0</text>
<text text-anchor="start" x="259.12" y="-25.2" font-family="Helvetica,sans-Serif" font-size="14.00">samples = 13.6%</text>
<text text-anchor="start" x="228" y="-7.95" font-family="Helvetica,sans-Serif" font-size="14.00">value = [0.0, 1.0, 0.0, 0.0]</text>
</g>
<!-- 2&#45;&gt;4 -->
<g id="edge4" class="edge">
<title>2&#45;&gt;4</title>
<path fill="none" stroke="black" d="M321,-103.99C321,-93.58 321,-82.26 321,-71.7"/>
<polygon fill="black" stroke="black" points="324.5,-71.7 321,-61.7 317.5,-71.7 324.5,-71.7"/>
</g>
<!-- 7 -->
<g id="node8" class="node">
<title>7</title>
<path fill="#399de5" stroke="black" d="M934,-59.75C934,-59.75 756,-59.75 756,-59.75 750,-59.75 744,-53.75 744,-47.75 744,-47.75 744,-12 744,-12 744,-6 750,0 756,0 756,0 934,0 934,0 940,0 946,-6 946,-12 946,-12 946,-47.75 946,-47.75 946,-53.75 940,-59.75 934,-59.75"/>
<text text-anchor="start" x="810.5" y="-42.45" font-family="Helvetica,sans-Serif" font-size="14.00">gini = 0.0</text>
<text text-anchor="start" x="783.12" y="-25.2" font-family="Helvetica,sans-Serif" font-size="14.00">samples = 13.7%</text>
<text text-anchor="start" x="752" y="-7.95" font-family="Helvetica,sans-Serif" font-size="14.00">value = [0.0, 0.0, 1.0, 0.0]</text>
</g>
<!-- 6&#45;&gt;7 -->
<g id="edge7" class="edge">
<title>6&#45;&gt;7</title>
<path fill="none" stroke="black" d="M880.71,-216.88C872.95,-176.46 860.72,-112.77 852.78,-71.41"/>
<polygon fill="black" stroke="black" points="856.22,-70.77 850.9,-61.6 849.35,-72.08 856.22,-70.77"/>
</g>
<!-- 8 -->
<g id="node9" class="node">
<title>8</title>
<path fill="#d739e5" stroke="black" d="M1154,-59.75C1154,-59.75 976,-59.75 976,-59.75 970,-59.75 964,-53.75 964,-47.75 964,-47.75 964,-12 964,-12 964,-6 970,0 976,0 976,0 1154,0 1154,0 1160,0 1166,-6 1166,-12 1166,-12 1166,-47.75 1166,-47.75 1166,-53.75 1160,-59.75 1154,-59.75"/>
<text text-anchor="start" x="1030.5" y="-42.45" font-family="Helvetica,sans-Serif" font-size="14.00">gini = 0.0</text>
<text text-anchor="start" x="1003.12" y="-25.2" font-family="Helvetica,sans-Serif" font-size="14.00">samples = 12.4%</text>
<text text-anchor="start" x="972" y="-7.95" font-family="Helvetica,sans-Serif" font-size="14.00">value = [0.0, 0.0, 0.0, 1.0]</text>
</g>
<!-- 6&#45;&gt;8 -->
<g id="edge8" class="edge">
<title>6&#45;&gt;8</title>
<path fill="none" stroke="black" d="M918.03,-216.88C950.58,-175.68 1002.23,-110.31 1034.84,-69.05"/>
<polygon fill="black" stroke="black" points="1037.5,-71.32 1040.95,-61.31 1032.01,-66.98 1037.5,-71.32"/>
</g>
</g>
</svg>
