<?xml version="1.0" encoding="UTF-8" standalone="no"?>
<!DOCTYPE svg PUBLIC "-//W3C//DTD SVG 1.1//EN"
 "http://www.w3.org/Graphics/SVG/1.1/DTD/svg11.dtd">
<!-- Generated by graphviz version 12.1.0 (20240811.2233)
 -->
<!-- Title: Tree Pages: 1 -->
<svg width="966pt" height="302pt"
 viewBox="0.00 0.00 966.38 302.38" xmlns="http://www.w3.org/2000/svg" xmlns:xlink="http://www.w3.org/1999/xlink">
<g id="graph0" class="graph" transform="scale(1 1) rotate(0) translate(4 298.38)">
<title>Tree</title>
<polygon fill="white" stroke="none" points="-4,4 -4,-298.38 962.38,-298.38 962.38,4 -4,4"/>
<!-- 0 -->
<g id="node1" class="node">
<title>0</title>
<path fill="#f3c5a4" stroke="black" d="M588.38,-294.38C588.38,-294.38 338.38,-294.38 338.38,-294.38 332.38,-294.38 326.38,-288.38 326.38,-282.38 326.38,-282.38 326.38,-229.38 326.38,-229.38 326.38,-223.38 332.38,-217.38 338.38,-217.38 338.38,-217.38 588.38,-217.38 588.38,-217.38 594.38,-217.38 600.38,-223.38 600.38,-229.38 600.38,-229.38 600.38,-282.38 600.38,-282.38 600.38,-288.38 594.38,-294.38 588.38,-294.38"/>
<text text-anchor="start" x="357.25" y="-277.07" font-family="Helvetica,sans-Serif" font-size="14.00">spatial_smoothing/fwhm ≤ 3.0</text>
<text text-anchor="start" x="424.38" y="-259.82" font-family="Helvetica,sans-Serif" font-size="14.00">gini = 0.61</text>
<text text-anchor="start" x="397" y="-242.57" font-family="Helvetica,sans-Serif" font-size="14.00">samples = 100.0%</text>
<text text-anchor="start" x="334.38" y="-225.32" font-family="Helvetica,sans-Serif" font-size="14.00">value = [0.563, 0.191, 0.177, 0.069]</text>
</g>
<!-- 1 -->
<g id="node2" class="node">
<title>1</title>
<path fill="#89ee80" stroke="black" d="M442.75,-181.38C442.75,-181.38 12,-181.38 12,-181.38 6,-181.38 0,-175.38 0,-169.38 0,-169.38 0,-116.38 0,-116.38 0,-110.38 6,-104.38 12,-104.38 12,-104.38 442.75,-104.38 442.75,-104.38 448.75,-104.38 454.75,-110.38 454.75,-116.38 454.75,-116.38 454.75,-169.38 454.75,-169.38 454.75,-175.38 448.75,-181.38 442.75,-181.38"/>
<text text-anchor="start" x="8" y="-164.07" font-family="Helvetica,sans-Serif" font-size="14.00">coregistration/cost_function/normalised_cross_correlation ≤ 0.5</text>
<text text-anchor="start" x="183.88" y="-146.82" font-family="Helvetica,sans-Serif" font-size="14.00">gini = 0.388</text>
<text text-anchor="start" x="165.5" y="-129.57" font-family="Helvetica,sans-Serif" font-size="14.00">samples = 26.0%</text>
<text text-anchor="start" x="116.38" y="-112.33" font-family="Helvetica,sans-Serif" font-size="14.00">value = [0.0, 0.736, 0.0, 0.264]</text>
</g>
<!-- 0&#45;&gt;1 -->
<g id="edge1" class="edge">
<title>0&#45;&gt;1</title>
<path fill="none" stroke="black" d="M382.82,-216.99C362.05,-207.22 339.55,-196.64 318.29,-186.64"/>
<polygon fill="black" stroke="black" points="319.88,-183.52 309.34,-182.43 316.9,-189.85 319.88,-183.52"/>
<text text-anchor="middle" x="316.44" y="-200.63" font-family="Helvetica,sans-Serif" font-size="14.00">True</text>
</g>
<!-- 4 -->
<g id="node5" class="node">
<title>4</title>
<path fill="#eda977" stroke="black" d="M915.75,-181.38C915.75,-181.38 485,-181.38 485,-181.38 479,-181.38 473,-175.38 473,-169.38 473,-169.38 473,-116.38 473,-116.38 473,-110.38 479,-104.38 485,-104.38 485,-104.38 915.75,-104.38 915.75,-104.38 921.75,-104.38 927.75,-110.38 927.75,-116.38 927.75,-116.38 927.75,-169.38 927.75,-169.38 927.75,-175.38 921.75,-181.38 915.75,-181.38"/>
<text text-anchor="start" x="481" y="-164.07" font-family="Helvetica,sans-Serif" font-size="14.00">coregistration/cost_function/normalised_cross_correlation ≤ 0.5</text>
<text text-anchor="start" x="656.88" y="-146.82" font-family="Helvetica,sans-Serif" font-size="14.00">gini = 0.364</text>
<text text-anchor="start" x="638.5" y="-129.57" font-family="Helvetica,sans-Serif" font-size="14.00">samples = 74.0%</text>
<text text-anchor="start" x="589.38" y="-112.33" font-family="Helvetica,sans-Serif" font-size="14.00">value = [0.761, 0.0, 0.239, 0.0]</text>
</g>
<!-- 0&#45;&gt;4 -->
<g id="edge4" class="edge">
<title>0&#45;&gt;4</title>
<path fill="none" stroke="black" d="M544.27,-216.99C565.13,-207.22 587.72,-196.64 609.07,-186.64"/>
<polygon fill="black" stroke="black" points="610.5,-189.84 618.07,-182.42 607.53,-183.5 610.5,-189.84"/>
<text text-anchor="middle" x="610.93" y="-200.61" font-family="Helvetica,sans-Serif" font-size="14.00">False</text>
</g>
<!-- 2 -->
<g id="node3" class="node">
<title>2</title>
<path fill="#47e539" stroke="black" d="M223.38,-59.75C223.38,-59.75 45.38,-59.75 45.38,-59.75 39.38,-59.75 33.38,-53.75 33.38,-47.75 33.38,-47.75 33.38,-12 33.38,-12 33.38,-6 39.38,0 45.38,0 45.38,0 223.38,0 223.38,0 229.38,0 235.38,-6 235.38,-12 235.38,-12 235.38,-47.75 235.38,-47.75 235.38,-53.75 229.38,-59.75 223.38,-59.75"/>
<text text-anchor="start" x="99.88" y="-42.45" font-family="Helvetica,sans-Serif" font-size="14.00">gini = 0.0</text>
<text text-anchor="start" x="72.5" y="-25.2" font-family="Helvetica,sans-Serif" font-size="14.00">samples = 19.1%</text>
<text text-anchor="start" x="41.38" y="-7.95" font-family="Helvetica,sans-Serif" font-size="14.00">value = [0.0, 1.0, 0.0, 0.0]</text>
</g>
<!-- 1&#45;&gt;2 -->
<g id="edge2" class="edge">
<title>1&#45;&gt;2</title>
<path fill="none" stroke="black" d="M195.63,-103.99C186.16,-92.69 175.79,-80.3 166.31,-68.99"/>
<polygon fill="black" stroke="black" points="169.01,-66.76 159.91,-61.35 163.64,-71.26 169.01,-66.76"/>
</g>
<!-- 3 -->
<g id="node4" class="node">
<title>3</title>
<path fill="#d739e5" stroke="black" d="M443.38,-59.75C443.38,-59.75 265.38,-59.75 265.38,-59.75 259.38,-59.75 253.38,-53.75 253.38,-47.75 253.38,-47.75 253.38,-12 253.38,-12 253.38,-6 259.38,0 265.38,0 265.38,0 443.38,0 443.38,0 449.38,0 455.38,-6 455.38,-12 455.38,-12 455.38,-47.75 455.38,-47.75 455.38,-53.75 449.38,-59.75 443.38,-59.75"/>
<text text-anchor="start" x="319.88" y="-42.45" font-family="Helvetica,sans-Serif" font-size="14.00">gini = 0.0</text>
<text text-anchor="start" x="297" y="-25.2" font-family="Helvetica,sans-Serif" font-size="14.00">samples = 6.9%</text>
<text text-anchor="start" x="261.38" y="-7.95" font-family="Helvetica,sans-Serif" font-size="14.00">value = [0.0, 0.0, 0.0, 1.0]</text>
</g>
<!-- 1&#45;&gt;3 -->
<g id="edge3" class="edge">
<title>1&#45;&gt;3</title>
<path fill="none" stroke="black" d="M270.73,-103.99C284.17,-92.24 298.95,-79.32 312.3,-67.65"/>
<polygon fill="black" stroke="black" points="314.47,-70.4 319.7,-61.18 309.87,-65.13 314.47,-70.4"/>
</g>
<!-- 5 -->
<g id="node6" class="node">
<title>5</title>
<path fill="#e58139" stroke="black" d="M726.38,-59.75C726.38,-59.75 548.38,-59.75 548.38,-59.75 542.38,-59.75 536.38,-53.75 536.38,-47.75 536.38,-47.75 536.38,-12 536.38,-12 536.38,-6 542.38,0 548.38,0 548.38,0 726.38,0 726.38,0 732.38,0 738.38,-6 738.38,-12 738.38,-12 738.38,-47.75 738.38,-47.75 738.38,-53.75 732.38,-59.75 726.38,-59.75"/>
<text text-anchor="start" x="602.88" y="-42.45" font-family="Helvetica,sans-Serif" font-size="14.00">gini = 0.0</text>
<text text-anchor="start" x="575.5" y="-25.2" font-family="Helvetica,sans-Serif" font-size="14.00">samples = 56.3%</text>
<text text-anchor="start" x="544.38" y="-7.95" font-family="Helvetica,sans-Serif" font-size="14.00">value = [1.0, 0.0, 0.0, 0.0]</text>
</g>
<!-- 4&#45;&gt;5 -->
<g id="edge5" class="edge">
<title>4&#45;&gt;5</title>
<path fill="none" stroke="black" d="M678.87,-103.99C672.65,-93.02 665.84,-81.04 659.58,-70"/>
<polygon fill="black" stroke="black" points="662.74,-68.47 654.76,-61.5 656.65,-71.93 662.74,-68.47"/>
</g>
<!-- 6 -->
<g id="node7" class="node">
<title>6</title>
<path fill="#399de5" stroke="black" d="M946.38,-59.75C946.38,-59.75 768.38,-59.75 768.38,-59.75 762.38,-59.75 756.38,-53.75 756.38,-47.75 756.38,-47.75 756.38,-12 756.38,-12 756.38,-6 762.38,0 768.38,0 768.38,0 946.38,0 946.38,0 952.38,0 958.38,-6 958.38,-12 958.38,-12 958.38,-47.75 958.38,-47.75 958.38,-53.75 952.38,-59.75 946.38,-59.75"/>
<text text-anchor="start" x="822.88" y="-42.45" font-family="Helvetica,sans-Serif" font-size="14.00">gini = 0.0</text>
<text text-anchor="start" x="795.5" y="-25.2" font-family="Helvetica,sans-Serif" font-size="14.00">samples = 17.7%</text>
<text text-anchor="start" x="764.38" y="-7.95" font-family="Helvetica,sans-Serif" font-size="14.00">value = [0.0, 0.0, 1.0, 0.0]</text>
</g>
<!-- 4&#45;&gt;6 -->
<g id="edge6" class="edge">
<title>4&#45;&gt;6</title>
<path fill="none" stroke="black" d="M753.97,-103.99C771.06,-91.9 789.9,-78.58 806.77,-66.65"/>
<polygon fill="black" stroke="black" points="808.54,-69.69 814.68,-61.06 804.49,-63.98 808.54,-69.69"/>
</g>
</g>
</svg>
